<svg width="33" height="28" viewBox="0 0 33 28" fill="none" xmlns="http://www.w3.org/2000/svg">
<path d="M5.90625 2.59631V16.3776C6.2662 19.3307 10.856 21.7424 16.4062 21.7424C21.9565 21.7424 26.4958 19.3307 26.8557 16.3776H26.9062V2.59631H5.90625Z" fill="#8324FB"/>
<path d="M25.922 2.59631V16.3776C25.5732 19.3307 21.2111 21.5598 15.8955 21.7001C16.0648 21.704 16.2351 21.7247 16.4064 21.7247C21.9566 21.7247 26.5461 19.3307 26.9064 16.3776V2.59631H25.922Z" fill="#253740"/>
<path d="M32.1562 3.08849V3.70815L17.364 0.888409C16.8125 0.727464 16.0135 0.727464 15.4622 0.888409L0.984375 3.63236V3.58068H0V3.97246V4.04333V4.26137C0 4.35636 0.193922 4.45283 0.363562 4.53946L12.6151 10.0613C13.147 10.335 14.0355 10.3935 14.5812 10.1927L32.4191 4.40853C32.6058 4.33914 32.8122 4.2594 32.8122 4.17721V4.04333V3.95769V3.58068L32.1562 3.08849Z" fill="#1E2C33"/>
<path d="M32.8125 3.19085C32.8125 3.11161 32.6041 3.03827 32.4119 2.98216L17.4225 0.121078C16.8709 -0.0403594 15.9613 -0.0403594 15.4097 0.121078L0.402937 2.98216C0.214922 3.03729 0 3.11653 0 3.20562V3.58066C0 3.67566 0.193922 3.68599 0.363562 3.77311L12.6151 9.29496C13.147 9.56862 14.0355 9.62768 14.5812 9.42687C14.5812 9.42687 32.8122 3.66335 32.8122 3.58165L32.8125 3.19085Z" fill="#8324FB"/>
<path d="M21.1639 22.4378C20.8821 22.4378 20.6717 22.0953 20.6717 21.6715V8.04381L14.9286 5.15319C14.6608 5.01932 14.5355 4.58521 14.6247 4.18309C14.714 3.78098 15.0139 3.56343 15.2806 3.69878L21.3595 6.76462C21.5685 6.86945 21.9842 7.1879 21.9842 7.51766V21.7911C21.9842 22.2144 21.4458 22.4378 21.1639 22.4378Z" fill="#FFD464"/>
<path d="M22.6406 23.2682C22.6406 23.2682 22.6406 21.9447 22.6406 21.6716C22.6406 20.6134 22.0336 19.7545 21.3281 19.7545C20.6227 19.7545 20.0156 20.6129 20.0156 21.6716C20.0156 21.9447 20.0156 23.2682 20.0156 23.2682H22.6406Z" fill="#E16B5A"/>
<path d="M22.6406 23.2682H20.0156V27.6979H22.6406V23.2682Z" fill="#FFD464"/>
<path d="M20.6719 23.2682H20.3438V27.6979H20.6719V23.2682Z" fill="#FFE399"/>
<path d="M21.3281 23.2682H21V27.6979H21.3281V23.2682Z" fill="#FFE399"/>
<path d="M21.9844 23.2682H21.6562V27.6979H21.9844V23.2682Z" fill="#FFE399"/>
</svg>
