<svg width="1920" height="1080" viewBox="0 0 1920 1080" fill="none" xmlns="http://www.w3.org/2000/svg">
<g filter="url(#filter0_d_2_7)">
<path d="M184.639 1145.63C85.5412 1145.63 140.52 913.684 83.5049 913.684C26.4899 913.684 59.0698 1145.63 8.84233 1145.63C-41.3852 1145.63 -27.1314 913.684 -27.1314 913.684V0H1924.28L1936.84 913.684C1936.84 913.684 1949.06 1171.15 1894.09 1171.15C1839.13 1171.15 1841.47 913.684 1771.56 913.684C1701.65 913.684 1784.45 1117.44 1684 1117.44C1583.54 1117.44 1654.55 913.684 1580.15 913.684C1505.74 913.684 1580.15 1016.44 1497.34 1016.44C1414.53 1016.44 1497.34 913.684 1414.53 913.684C1331.73 913.684 1456.62 1202 1320.19 1202C1183.76 1202 1320.19 913.684 1189.87 913.684C1059.55 913.684 1216.34 1184.97 1098.92 1184.97C981.491 1184.97 1119.83 913.684 991.673 913.684C863.511 913.684 995.067 1145.63 907.508 1145.63C819.949 1145.63 907.508 913.684 788.726 913.684C669.945 913.684 773.794 1117.44 671.981 1117.44C570.169 1117.44 688.258 913.684 557.951 913.684C427.645 913.684 513.833 1184.97 431.025 1184.97C348.218 1184.97 341.11 1037.58 334.323 1016.44C327.535 995.305 334.39 913.684 297.059 913.684C259.728 913.684 283.736 1145.63 184.639 1145.63Z" fill="url(#paint0_linear_2_7)"/>
</g>
<defs>
<filter id="filter0_d_2_7" x="-29" y="0" width="1978" height="1210" filterUnits="userSpaceOnUse" color-interpolation-filters="sRGB">
<feFlood flood-opacity="0" result="BackgroundImageFix"/>
<feColorMatrix in="SourceAlpha" type="matrix" values="0 0 0 0 0 0 0 0 0 0 0 0 0 0 0 0 0 0 127 0" result="hardAlpha"/>
<feOffset dx="7" dy="4"/>
<feGaussianBlur stdDeviation="2"/>
<feComposite in2="hardAlpha" operator="out"/>
<feColorMatrix type="matrix" values="0 0 0 0 0 0 0 0 0 0 0 0 0 0 0 0 0 0 0.25 0"/>
<feBlend mode="normal" in2="BackgroundImageFix" result="effect1_dropShadow_2_7"/>
<feBlend mode="normal" in="SourceGraphic" in2="effect1_dropShadow_2_7" result="shape"/>
</filter>
<linearGradient id="paint0_linear_2_7" x1="948.832" y1="0" x2="948.832" y2="1202" gradientUnits="userSpaceOnUse">
<stop stop-color="#B501AA"/>
<stop offset="1" stop-color="#8324FB"/>
</linearGradient>
</defs>
</svg>
