<svg width="30" height="30" viewBox="0 0 30 30" fill="none" xmlns="http://www.w3.org/2000/svg">
<g clip-path="url(#clip0_352_199)">
<path d="M1.96675 28.0372C3.64814 29.7186 5.62969 30.4631 6.39266 29.7002C7.15563 28.9372 6.41111 26.9556 4.72972 25.2743C3.04834 23.5929 1.06679 22.8484 0.303817 23.6113C-0.459156 24.3743 0.285365 26.3558 1.96675 28.0372Z" fill="#8324FB"/>
<path d="M17.7473 20.7454L23.8413 26.8332L24.8886 22.5032L29.2186 21.4314L23.1247 15.3619L17.7473 20.7454Z" fill="#FFD464"/>
<path d="M1.7561 22.1724C2.96877 22.3868 4.35292 23.1952 5.59008 24.4324C6.87624 25.7186 7.63568 27.0721 7.85004 28.2664L14.9362 21.1741L8.84222 15.0802L1.7561 22.1724Z" fill="#8324FB"/>
<path d="M14.2347 9.68607L9.69189 14.2289L15.7851 20.3221L20.3279 15.7793L14.2347 9.68607Z" fill="#8324FB"/>
<path d="M28.0548 1.96752C26.3644 0.277138 24.3862 -0.463934 23.6268 0.301636L15.083 8.8454L21.1769 14.9393L29.6962 6.41395C30.4557 5.63 29.7207 3.6579 28.0548 1.96752Z" fill="#8324FB"/>
</g>
<defs>
<clipPath id="clip0_352_199">
<rect width="30" height="30" fill="white"/>
</clipPath>
</defs>
</svg>
