<svg width="32" height="32" viewBox="0 0 32 32" fill="none" xmlns="http://www.w3.org/2000/svg">
<path d="M16 0C7.1632 0 0 7.1632 0 16C0 24.8368 7.1632 32 16 32C24.8368 32 32 24.8368 32 16C32 7.1632 24.8368 0 16 0Z" fill="url(#paint0_linear_401_14)"/>
<path d="M18.1656 20.2408H22.3063L22.9567 16.0344H18.1656V13.7352C18.1656 11.988 18.7368 10.4384 20.3712 10.4384H22.9976V6.76798C22.536 6.70558 21.5599 6.56958 19.716 6.56958C15.8647 6.56958 13.6072 8.60318 13.6072 13.2368V16.0352H9.64795V20.2416H13.6063V31.8032C14.3903 31.92 15.1847 32 15.9999 32C16.7367 32 17.456 31.9328 18.1656 31.8368V20.2408Z" fill="white"/>
<defs>
<linearGradient id="paint0_linear_401_14" x1="4.7944" y1="4.7944" x2="29.292" y2="29.292" gradientUnits="userSpaceOnUse">
<stop stop-color="#2AA4F4"/>
<stop offset="1" stop-color="#007AD9"/>
</linearGradient>
</defs>
</svg>
