<svg width="32" height="32" viewBox="0 0 32 32" fill="none" xmlns="http://www.w3.org/2000/svg">
<path d="M30.87 26L20.87 8.67999C20.8044 8.56523 20.7168 8.4646 20.6121 8.38392C20.5074 8.30325 20.3877 8.24413 20.26 8.20999C20.133 8.17586 20.0005 8.16712 19.8701 8.18428C19.7396 8.20144 19.6139 8.24416 19.5 8.30999L13.44 11.81C13.3254 11.8753 13.2249 11.9627 13.1442 12.067C13.0635 12.1714 13.0043 12.2907 12.9699 12.418C12.9355 12.5453 12.9266 12.6782 12.9438 12.809C12.961 12.9398 13.0039 13.0659 13.07 13.18L23.07 30.5C23.1581 30.6526 23.285 30.7792 23.4378 30.867C23.5905 30.9548 23.7638 31.0007 23.94 31C24.1145 30.9989 24.2857 30.9522 24.4366 30.8645C24.5875 30.7768 24.7128 30.6511 24.8 30.5L26.54 27.5H30C30.1762 27.5007 30.3495 27.4548 30.5023 27.367C30.655 27.2792 30.7819 27.1526 30.87 27C30.9578 26.848 31.004 26.6755 31.004 26.5C31.004 26.3245 30.9578 26.152 30.87 26Z" fill="#8324FB"/>
<path d="M18.5601 11.81L12.5001 8.31001C12.2684 8.18209 11.997 8.14637 11.7401 8.21001C11.6124 8.24415 11.4927 8.30326 11.388 8.38394C11.2833 8.46461 11.1956 8.56524 11.1301 8.68001L1.13007 26C1.0423 26.152 0.996094 26.3245 0.996094 26.5C0.996094 26.6755 1.0423 26.848 1.13007 27C1.21817 27.1526 1.34504 27.2792 1.49781 27.367C1.65059 27.4548 1.82386 27.5007 2.00007 27.5H5.46007L7.20007 30.5C7.28732 30.6511 7.41261 30.7768 7.56348 30.8645C7.71435 30.9522 7.88555 30.999 8.06007 31C8.23628 31.0007 8.40954 30.9548 8.56232 30.867C8.7151 30.7792 8.84196 30.6526 8.93007 30.5L18.9301 13.18C18.9962 13.0659 19.0391 12.9398 19.0563 12.809C19.0734 12.6782 19.0646 12.5453 19.0302 12.418C18.9958 12.2907 18.9366 12.1714 18.8559 12.067C18.7752 11.9627 18.6747 11.8753 18.5601 11.81Z" fill="#8324FB"/>
<path d="M16 25C22.6274 25 28 19.6274 28 13C28 6.37258 22.6274 1 16 1C9.37258 1 4 6.37258 4 13C4 19.6274 9.37258 25 16 25Z" fill="#8324FB"/>
<path d="M23.0001 10.33C22.9429 10.1536 22.8378 9.99665 22.6965 9.87657C22.5552 9.75648 22.3833 9.67804 22.2001 9.65001L18.5701 9.12001L16.9001 5.81001C16.8182 5.64093 16.6903 5.49835 16.5311 5.39858C16.372 5.29881 16.1879 5.2459 16.0001 5.2459C15.8122 5.2459 15.6281 5.29881 15.469 5.39858C15.3098 5.49835 15.1819 5.64093 15.1001 5.81001L13.4801 9.12001L9.85006 9.65001C9.66486 9.67688 9.49092 9.75517 9.34802 9.87599C9.20512 9.99681 9.09898 10.1553 9.04168 10.3335C8.98438 10.5116 8.97822 10.7022 9.0239 10.8837C9.06957 11.0652 9.16525 11.2302 9.30006 11.36L11.9301 13.94L11.3101 17.58C11.2744 17.7675 11.293 17.9613 11.3639 18.1385C11.4348 18.3157 11.5549 18.4689 11.7101 18.58C11.8558 18.6786 12.0251 18.7371 12.2007 18.7494C12.3762 18.7617 12.552 18.7274 12.7101 18.65L16.0001 16.92L19.2401 18.63C19.3845 18.708 19.5459 18.7492 19.7101 18.75C19.9185 18.7487 20.1212 18.6822 20.2901 18.56C20.4452 18.4489 20.5653 18.2957 20.6362 18.1185C20.7071 17.9413 20.7258 17.7475 20.6901 17.56L20.0701 13.92L22.7001 11.34C22.8391 11.2163 22.9409 11.0562 22.9939 10.8777C23.0469 10.6993 23.049 10.5096 23.0001 10.33Z" fill="#F5F5F5"/>
</svg>
