<svg width="50" height="67" viewBox="0 0 80 67" fill="none" xmlns="http://www.w3.org/2000/svg">
<path d="M68.0872 34.0588L40.008 12.0466L11.915 34.068V65.5345C11.915 66.3482 12.6566 67.0001 13.5741 67.0001H31.1317V53.2025C31.1317 52.3904 31.8681 51.7339 32.7873 51.7339H47.2132C48.1324 51.7339 48.8688 52.3904 48.8688 53.2025V67.0001H66.4316C67.3491 67.0001 68.0872 66.3482 68.0872 65.5345V34.0588V34.0588Z" fill="#8324FB"/>
<path d="M39.8458 0L0 31.233L4.19722 35.4235L40.0076 7.35217L75.8111 35.4235L80 31.233L40.1628 0L40.0076 0.158769L39.8455 0H39.8458Z" fill="#8324FB"/>
<path d="M11.915 4.49591H22.0158L21.9278 9.79173L11.915 17.7988V4.49591Z" fill="#8324FB"/>
</svg>
