<svg width="98" height="98" viewBox="0 0 98 98" fill="none" xmlns="http://www.w3.org/2000/svg">
<g clip-path="url(#clip0_425_41)">
<path fill-rule="evenodd" clip-rule="evenodd" d="M49 0C58.6913 0 68.1649 2.8738 76.2229 8.25799C84.281 13.6422 90.5614 21.2949 94.2701 30.2485C97.9788 39.2021 98.9492 49.0544 97.0585 58.5594C95.1678 68.0645 90.501 76.7955 83.6482 83.6482C76.7955 90.501 68.0645 95.1678 58.5594 97.0585C49.0544 98.9492 39.2021 97.9788 30.2485 94.2701C21.2949 90.5614 13.6422 84.281 8.25799 76.2229C2.8738 68.1649 0 58.6913 0 49C0 36.0044 5.16249 23.5411 14.3518 14.3518C23.5411 5.16249 36.0044 0 49 0V0Z" fill="#8324FB"/>
<path fill-rule="evenodd" clip-rule="evenodd" d="M25.9196 42.5799H34.3415C34.8012 42.582 35.2414 42.7661 35.5657 43.0919C35.8901 43.4177 36.0721 43.8588 36.0721 44.3185V67.4069C36.0701 67.866 35.8873 68.3058 35.5634 68.6311C35.2396 68.9565 34.8006 69.1413 34.3415 69.1455H25.9196C25.4592 69.1434 25.0182 68.9595 24.6926 68.6339C24.367 68.3083 24.1831 67.8673 24.181 67.4069V44.3185C24.1831 43.858 24.367 43.417 24.6926 43.0914C25.0182 42.7658 25.4592 42.582 25.9196 42.5799V42.5799ZM48.0111 25.2656C48.9203 20.624 56.5127 24.8987 57.0152 32.3715C57.1273 35.0279 56.9104 37.6879 56.3692 40.291H67.2235C71.7295 40.4744 75.6693 43.7044 72.8859 49.0079C73.524 51.3208 73.6197 54.0324 71.897 55.109C72.1123 58.7537 71.0995 61.0187 69.2093 62.8051C69.1734 64.4686 68.6824 66.0905 67.7898 67.4946C66.3303 69.5522 65.1499 69.0896 62.8531 69.0896H44.51C41.607 69.0896 40.0279 68.2921 38.1298 65.8995V45.459C43.6407 43.9995 46.5437 36.5267 48.0111 31.6219V25.2417V25.2656Z" fill="white"/>
</g>
<defs>
<clipPath id="clip0_425_41">
<rect width="98" height="98" fill="white"/>
</clipPath>
</defs>
</svg>
