<svg width="108" height="108" viewBox="0 0 108 108" fill="none" xmlns="http://www.w3.org/2000/svg">
<g filter="url(#filter0_d_8_189)">
<circle cx="49" cy="49" r="49" fill="#8324FB"/>
<g clip-path="url(#clip0_8_189)">
<path d="M72.1252 39.9995C69.977 39.4352 64.9261 39.4429 57.5379 39.2471C57.8866 37.6346 57.968 36.1805 57.968 33.6001C57.968 27.4338 53.4758 22.0023 49.5018 22.0023C46.6947 22.0023 44.3816 24.2968 44.3453 27.1192C44.3079 30.5807 43.2365 36.5578 37.4707 39.5892C37.0483 39.8125 35.8384 40.4086 35.6613 40.4867L35.7526 40.5637C34.8506 39.785 33.5989 39.1888 32.3153 39.1888H27.1588C24.3166 39.1888 22.0023 41.502 22.0023 44.3453V71.8437C22.0023 74.6859 24.3155 77.0001 27.1588 77.0001H32.3153C34.3601 77.0001 36.0727 75.7649 36.9009 74.0325C36.9218 74.0391 36.9581 74.0501 36.9812 74.0534C37.0945 74.0842 37.2287 74.1172 37.3915 74.1601C37.4223 74.1689 37.4377 74.1722 37.4707 74.181C38.4606 74.4263 40.3668 74.8828 44.4399 75.8188C45.3132 76.0179 49.9263 77.0012 54.7034 77.0012H64.099C66.9621 77.0012 69.0267 75.8991 70.2553 73.6871C70.2729 73.653 70.6678 72.8809 70.9912 71.8382C71.2332 71.0528 71.3234 69.9408 71.0308 68.8133C72.8765 67.5451 73.4715 65.6268 73.8576 64.3795C74.5055 62.3325 74.3108 60.7948 73.8609 59.6927C74.8993 58.7126 75.7836 57.22 76.1565 54.9388C76.3886 53.5265 76.1389 52.0723 75.4877 50.8624C76.4601 49.7691 76.9044 48.3942 76.955 47.1226L76.9759 46.763C76.988 46.5375 76.9979 46.3989 76.9979 45.9039C76.9979 43.7337 75.4943 40.9641 72.1241 40.0017L72.1252 39.9995ZM34.0334 71.8426C34.0334 72.7929 33.2656 73.5617 32.3142 73.5617H27.1577C26.2074 73.5617 25.4385 72.794 25.4385 71.8426V44.3442C25.4385 43.3939 26.2063 42.625 27.1577 42.625H32.3142C33.2645 42.625 34.0334 43.3928 34.0334 44.3442V71.8426ZM73.5221 46.9818C73.488 47.831 73.1317 49.4996 70.1244 49.4996C67.5462 49.4996 66.6871 49.4996 66.6871 49.4996C66.2109 49.4996 65.8281 49.8846 65.8281 50.3586C65.8281 50.8327 66.2109 51.2177 66.6871 51.2177C66.6871 51.2177 67.4395 51.2177 70.0177 51.2177C72.596 51.2177 72.9348 53.356 72.7676 54.3866C72.5542 55.6691 71.9525 58.0923 69.0498 58.0923C66.1504 58.0923 64.9679 58.0923 64.9679 58.0923C64.4917 58.0923 64.1089 58.4751 64.1089 58.9513C64.1089 59.4243 64.4917 59.8104 64.9679 59.8104C64.9679 59.8104 67.0094 59.8104 68.3524 59.8104C71.253 59.8104 70.9978 62.0223 70.582 63.3423C70.0342 65.0769 69.6988 66.685 66.0426 66.685C64.8074 66.685 63.2399 66.685 63.2399 66.685C62.7637 66.685 62.3809 67.0677 62.3809 67.544C62.3809 68.017 62.7637 68.4031 63.2399 68.4031C63.2399 68.4031 64.4312 68.4031 65.9348 68.4031C67.8146 68.4031 67.9026 70.1817 67.7068 70.8196C67.4923 71.517 67.2371 72.035 67.2272 72.0592C66.708 72.9964 65.871 73.5595 64.099 73.5595H54.7034C49.9835 73.5595 45.3022 72.4893 45.1823 72.4618C38.0427 70.8174 37.6665 70.6898 37.2177 70.5622C37.2177 70.5622 35.7636 70.3169 35.7636 69.0476L35.7515 45.3099C35.7515 44.5037 36.2652 43.7755 37.1165 43.5193C37.2232 43.4786 37.3673 43.4335 37.4707 43.3906C45.3209 40.1392 47.7122 33.0094 47.7826 27.1566C47.7925 26.3339 48.4271 25.4374 49.5007 25.4374C51.3178 25.4374 54.5296 29.0848 54.5296 33.5979C54.5296 37.6731 54.3646 38.3771 52.938 42.6239C70.1244 42.6239 70.0045 42.8714 71.5203 43.2685C73.4 43.8063 73.5617 45.3638 73.5617 45.8995C73.5617 46.4891 73.5441 46.4033 73.5221 46.9807V46.9818ZM29.736 66.6861C28.3126 66.6861 27.1577 67.841 27.1577 69.2643C27.1577 70.6876 28.3126 71.8426 29.736 71.8426C31.1593 71.8426 32.3142 70.6876 32.3142 69.2643C32.3142 67.841 31.1593 66.6861 29.736 66.6861ZM29.736 70.1234C29.263 70.1234 28.8769 69.7362 28.8769 69.2643C28.8769 68.7924 29.2641 68.4053 29.736 68.4053C30.2078 68.4053 30.595 68.7924 30.595 69.2643C30.595 69.7362 30.2078 70.1234 29.736 70.1234Z" fill="white"/>
</g>
</g>
<defs>
<filter id="filter0_d_8_189" x="0" y="0" width="108" height="108" filterUnits="userSpaceOnUse" color-interpolation-filters="sRGB">
<feFlood flood-opacity="0" result="BackgroundImageFix"/>
<feColorMatrix in="SourceAlpha" type="matrix" values="0 0 0 0 0 0 0 0 0 0 0 0 0 0 0 0 0 0 127 0" result="hardAlpha"/>
<feOffset dx="6" dy="6"/>
<feGaussianBlur stdDeviation="2"/>
<feComposite in2="hardAlpha" operator="out"/>
<feColorMatrix type="matrix" values="0 0 0 0 0 0 0 0 0 0 0 0 0 0 0 0 0 0 0.25 0"/>
<feBlend mode="normal" in2="BackgroundImageFix" result="effect1_dropShadow_8_189"/>
<feBlend mode="normal" in="SourceGraphic" in2="effect1_dropShadow_8_189" result="shape"/>
</filter>
<clipPath id="clip0_8_189">
<rect width="55" height="55" fill="white" transform="translate(22 22)"/>
</clipPath>
</defs>
</svg>
