<svg width="70" height="80" viewBox="0 0 117 80" fill="none" xmlns="http://www.w3.org/2000/svg">
<path d="M95.8854 35.9598L86.7448 29.711C86.0558 29.2398 84.9346 29.2398 84.2454 29.711C83.5546 30.1834 83.5546 30.9488 84.2454 31.42L90.3097 35.5655H64.4717V38.0655H90.3069L84.2454 42.211C83.5546 42.6834 83.5546 43.4488 84.2454 43.92C84.59 44.1557 85.0436 44.274 85.4951 44.274C85.9468 44.274 86.4002 44.1557 86.7448 43.92L95.8854 37.6688C96.2176 37.4418 96.4032 37.1342 96.4032 36.8143C96.4032 36.4933 96.2176 36.1869 95.8854 35.9598Z" fill="black"/>
<path d="M73.6123 49.3156C72.6019 49.3156 71.7842 49.8747 71.7842 50.5656V64.0531C71.7842 65.3568 70.265 66.8156 68.2316 66.8156H57.1592V14.0493V12.3347L54.8788 11.6674L25.7335 3.20555L25.2569 3.06555H68.2316C70.456 3.06555 71.7842 4.3058 71.7842 5.50455V24.3156C71.7842 25.0064 72.6019 25.5656 73.6123 25.5656C74.6229 25.5656 75.4404 25.0064 75.4404 24.3156V5.50455C75.4404 2.78118 72.2074 0.565552 68.2316 0.565552H22.4248C21.4713 0.565552 20.7139 1.06918 20.629 1.70605L20.5967 1.69655V1.81555V68.7926L52.0139 77.9256L57.1592 79.4344V75.5656V69.3156H68.2316C72.543 69.3156 75.4404 66.5946 75.4404 64.0531V50.5656C75.4404 49.8747 74.6229 49.3156 73.6123 49.3156ZM53.5029 14.0493V75.5656L24.2529 67.0947V5.56555L53.4859 14.0316L53.5029 14.0364V14.0493Z" fill="black"/>
</svg>
