<svg width="24" height="30" viewBox="0 0 24 30" fill="none" xmlns="http://www.w3.org/2000/svg">
<path d="M16.7646 12H7.23521C6.81398 12 6.41001 11.842 6.11216 11.5607C5.8143 11.2794 5.64697 10.8978 5.64697 10.5V6C5.64697 4.4087 6.3163 2.88258 7.50771 1.75736C8.69911 0.632141 10.315 0 11.9999 0C13.6848 0 15.3007 0.632141 16.4921 1.75736C17.6835 2.88258 18.3529 4.4087 18.3529 6V10.5C18.3529 10.8978 18.1855 11.2794 17.8877 11.5607C17.5898 11.842 17.1858 12 16.7646 12ZM8.82344 9H15.1764V6C15.1764 5.20435 14.8417 4.44129 14.246 3.87868C13.6503 3.31607 12.8424 3 11.9999 3C11.1575 3 10.3495 3.31607 9.75381 3.87868C9.15811 4.44129 8.82344 5.20435 8.82344 6V9Z" fill="#CA1BE7"/>
<path d="M18.8571 9H5.14286C2.30254 9 0 11.0147 0 13.5V25.5C0 27.9853 2.30254 30 5.14286 30H18.8571C21.6975 30 24 27.9853 24 25.5V13.5C24 11.0147 21.6975 9 18.8571 9Z" fill="#8324FB"/>
<path d="M15.5292 18.012C15.533 17.4857 15.3731 16.9679 15.0657 16.5107C14.7583 16.0535 14.3143 15.6731 13.7784 15.4079C13.2425 15.1427 12.6336 15.002 12.0132 15C11.3927 14.998 10.7826 15.1348 10.2444 15.3966C9.70615 15.6584 9.25876 16.0359 8.94732 16.4911C8.63589 16.9463 8.47141 17.4631 8.47046 17.9894C8.46952 18.5158 8.63215 19.033 8.94195 19.489C9.25176 19.945 9.69779 20.3237 10.2351 20.5868V22.503C10.2351 22.9 10.421 23.2808 10.752 23.5615C11.0829 23.8423 11.5318 24 11.9998 24C12.4678 24 12.9167 23.8423 13.2476 23.5615C13.5786 23.2808 13.7645 22.9 13.7645 22.503V20.5868C14.2979 20.3256 14.7415 19.9505 15.0511 19.4988C15.3607 19.0471 15.5255 18.5345 15.5292 18.012Z" fill="#CA1BE7"/>
</svg>
