<svg width="98" height="98" viewBox="0 0 98 98" fill="none" xmlns="http://www.w3.org/2000/svg">
<path d="M49.0002 0C21.939 0 0.000976562 21.9384 0.000976562 48.9995C0.000976562 76.0597 21.9387 98 48.9995 98C76.0603 98 98.0003 76.0597 98.0003 48.9995C98.0003 21.9384 76.0606 0 49.0002 0ZM67.4841 67.6752C65.5277 69.6299 62.3584 69.6299 60.4036 67.6752L49.254 56.5255L37.5967 68.1828C35.6413 70.1376 32.4716 70.1376 30.5172 68.1828C28.5608 66.2258 28.5608 63.0571 30.5172 61.1008L42.1735 49.4444L31.3205 38.592C29.3657 36.635 29.3657 33.4663 31.3205 31.5106C33.2759 29.5552 36.4462 29.5552 38.4019 31.5106L49.2543 42.363L59.6001 32.0166C61.5555 30.0619 64.7267 30.0612 66.6805 32.0166C68.6369 33.9736 68.6369 37.1442 66.6805 39.098L56.3357 49.4438L67.4847 60.5934C69.4395 62.5479 69.4405 65.7191 67.4841 67.6752Z" fill="#E71B1B"/>
</svg>
