<svg width="34" height="34" viewBox="0 0 34 34" fill="none" xmlns="http://www.w3.org/2000/svg">
<path fill-rule="evenodd" clip-rule="evenodd" d="M1.03253 19.3497C0.113513 20.8536 0.379605 21.904 0.705234 22.9317L15.6122 33.374L29.4481 27.4243L28.3769 26.6958L28.1389 25.4815C28.5197 25.1063 28.8786 24.7356 29.1208 24.3887C29.1873 23.9753 29.4936 23.4397 28.972 23.3263L13.1724 15.4338L2.37148 18.9247L1.86566 19.4104L1.03253 19.3497Z" fill="#8324FB" stroke="#CA1BE7" stroke-width="0.29055"/>
<path fill-rule="evenodd" clip-rule="evenodd" d="M13.2541 15.0963L1.9913 18.6326C1.9913 18.6326 1.84916 19.0026 1.68754 19.0747C1.45175 19.1798 0.922881 18.968 0.922881 18.968C0.453217 19.1899 0.107248 20.1548 0.0536831 21.0447C0.000117972 21.9347 0.178062 22.8115 0.465272 23.1396L15.3607 33.7223C15.5836 33.8509 15.6969 33.8116 15.8104 33.7726L29.7695 27.8953C30.0457 27.7679 30.0596 27.466 29.8254 27.1407L28.4565 26.1714C28.5668 26.6786 28.6483 27.1572 28.5906 27.4358C25.8643 28.5502 19.5212 31.1721 15.9103 32.7443C15.6294 32.3451 15.598 31.7329 15.5428 31.1928C15.4814 30.5917 15.5397 29.7861 15.7716 29.4294C16.0035 29.0726 16.2842 29.4254 16.4672 29.3381C16.6148 29.2678 16.842 29.1075 16.9649 28.9203C19.7698 27.9624 25.9505 25.4156 29.7195 23.919C29.9904 23.6351 29.8419 23.4581 29.6728 23.2865L13.2541 15.0963ZM13.1988 15.8114L28.5525 23.6279L16.5527 28.3031C16.5527 28.3031 16.3883 28.5835 16.241 28.6372C16.1135 28.6836 15.9184 28.5033 15.7788 28.4541C15.6071 28.3935 15.321 28.5044 15.1983 28.6996C14.906 29.1643 14.7293 29.7326 14.6361 30.2745C14.5239 30.9267 14.6132 31.5603 14.7827 32.1353L1.37326 22.7223C1.06717 22.51 0.766421 21.8777 0.806507 21.2118C0.847149 20.5365 1.00935 19.8405 1.44361 19.6267C1.44361 19.6267 1.93379 19.8036 2.08598 19.7569C2.25729 19.7042 2.46469 19.3296 2.46469 19.3296L13.1988 15.8114ZM2.39255 20.1292C2.13242 20.2403 6.48641 22.8373 8.77328 24.2329C10.9754 25.5768 15.6914 28.4122 15.8301 28.1878C15.9688 27.9633 11.2302 25.2924 9.03694 23.9492C6.81699 22.5897 2.65267 20.0181 2.39255 20.1292Z" fill="black"/>
<path fill-rule="evenodd" clip-rule="evenodd" d="M29.3968 24.0464L16.9756 28.9095C16.8804 28.9904 16.6101 29.2961 16.4358 29.3335C16.2307 29.3774 16.0142 29.1005 15.7585 29.4153C15.5439 30.0404 15.5183 30.4696 15.5889 31.0526C15.6815 31.8171 15.7266 32.0352 15.9735 32.7128L28.571 27.4996C28.7446 26.9436 28.4887 26.3972 28.4066 25.9025C28.3793 25.7183 28.3836 25.5558 28.4678 25.3504C28.5519 25.1451 28.845 25.0124 29.1549 24.6649C29.3386 24.4587 29.3792 24.2526 29.3968 24.0464ZM28.6782 24.7018C28.7218 24.9452 28.2897 24.9106 28.0792 25.1807C28.035 25.2374 28.0013 25.3023 27.9733 25.3699C27.8128 25.4256 27.1967 25.6386 26.8688 25.7623C25.504 26.2771 22.7808 27.3308 22.8147 27.4144C22.8486 27.498 25.5226 26.3474 26.8839 25.8944C27.233 25.7782 27.7702 25.608 27.9175 25.561C27.8757 25.745 27.8697 25.9199 27.8806 25.9937C27.9475 26.444 28.0118 26.758 28.0049 27.0736L16.2425 32.0615C16.071 31.6383 15.9517 31.2376 15.9269 30.8058C16.0595 30.7551 19.0724 29.6017 20.6549 28.9183C22.0453 28.3177 24.9433 27.2733 24.8871 27.1883C24.8309 27.1033 21.9539 28.1383 20.5674 28.7814C19.0796 29.4715 16.2836 30.5202 15.9209 30.6227C15.9232 30.3516 15.9627 30.0665 16.0557 29.7527C16.1428 29.764 16.4746 29.7811 16.5633 29.7668C16.7614 29.7348 16.901 29.5588 17.0992 29.359C17.541 29.1872 28.6782 24.7018 28.6782 24.7018V24.7018ZM22.8331 28.7063C21.3626 29.311 17.5091 30.9544 17.5022 31.0305C17.4953 31.1067 21.4343 29.4626 22.8903 28.8579C24.2293 28.3018 27.5944 27.0249 27.3437 27.0121C27.0929 26.9993 24.0784 28.1942 22.8331 28.7063Z" fill="black"/>
<path fill-rule="evenodd" clip-rule="evenodd" d="M1.56808 13.4L2.669 13.0965L14.3923 13.0054L27.4545 21.1407L26.9189 21.4443L26.3833 23.0531C26.5371 23.4882 26.5244 24.2628 26.8892 24.2673L10.5837 28.3653L0.824219 16.6481C0.968658 15.5302 0.569013 14.2273 1.56808 13.4Z" fill="#8324FB" stroke="#8324FB" stroke-width="0.29055"/>
<path fill-rule="evenodd" clip-rule="evenodd" d="M14.4889 12.6856L2.49176 12.8043C2.41379 12.9177 2.22759 13.0847 2.13671 13.1055C2.04114 13.1274 1.78205 12.9129 1.62321 12.9754C0.902896 13.2586 0.829075 14.1211 0.705362 14.5993C0.482935 15.4592 0.681232 16.7665 0.934825 17.155C1.31354 17.6057 9.9539 28.0411 10.2836 28.3729C10.6645 28.7562 11.0134 28.8084 11.6486 28.6392C14.4848 27.8835 22.7387 26.049 27.953 24.6012C28.2605 24.4371 28.134 24.1656 27.9089 23.9478L26.6584 23.1731C26.6642 23.5219 26.7128 23.8398 26.8135 24.1672C21.968 25.3073 16.1969 26.5899 11.2824 27.7182C10.8549 27.5648 10.4218 26.8804 10.3724 26.5236C10.2357 25.5365 10.4179 25.0683 10.6038 24.7937C10.789 24.5202 10.9314 24.3546 11.1009 24.247C11.2882 24.2667 11.5652 24.3482 11.7301 24.2852C11.9048 24.2185 12.0271 24.0883 12.1555 23.9666L27.7511 21.4834C27.9934 21.2966 27.8376 21.035 27.7169 20.9233L14.4889 12.6856ZM14.3482 13.4006L26.5473 21.0058L11.7821 23.322C11.6195 23.4067 11.5624 23.5996 11.4901 23.6272C11.4178 23.6548 11.1852 23.5989 10.9891 23.5796C10.5819 23.7018 10.0544 24.4553 9.92597 24.9902C9.63224 26.2137 9.85821 26.8443 10.3915 27.7149L1.51802 16.8383C1.30372 16.5055 1.18228 15.9474 1.32471 15.04C1.39538 14.5898 1.54484 14.1544 1.7718 13.7837C1.91533 13.7949 2.04319 13.8987 2.28267 13.8199C2.59105 13.7184 2.58568 13.4789 2.65941 13.4503L14.3482 13.4006ZM2.49648 14.2092C2.33092 14.363 5.26911 17.2347 6.71808 18.7735C8.18432 20.3307 10.9233 23.5597 11.141 23.3884C11.3587 23.2171 8.44982 20.0751 6.98963 18.5253C5.57858 17.0278 2.66203 14.0554 2.49648 14.2092Z" fill="black"/>
<path fill-rule="evenodd" clip-rule="evenodd" d="M27.3263 21.5512C22.22 22.2995 14.8437 23.4355 12.1587 23.9512C12.051 24.102 11.87 24.2329 11.6406 24.2872C11.5538 24.3078 11.3419 24.2666 11.1028 24.245C10.5375 24.6205 10.2962 25.3929 10.3723 26.1064C10.4697 27.0197 10.835 27.3714 11.3168 27.7229C16.4874 26.5527 21.658 25.5899 26.8286 24.1685C26.4548 22.9829 26.8058 22.2814 27.3263 21.5512ZM26.2296 22.2052C26.0341 22.5922 26.002 22.8485 26.0573 23.2831C25.9477 23.3041 24.7209 23.5385 24.0645 23.6695C23.2664 23.8286 21.7145 24.0586 21.712 24.1766C21.7095 24.2945 23.3267 24.0245 24.1191 23.8573C24.704 23.7338 25.7941 23.6 26.0731 23.3857C26.0879 23.4869 26.1015 23.5833 26.1237 23.7077L11.4743 27.2252C11.2855 27.1086 11.1232 26.8799 11.0061 26.6376C11.2574 26.5878 13.6115 26.1214 14.8537 25.9239C16.284 25.6965 19.1326 25.0697 19.0932 24.9654C19.0538 24.8611 16.3746 25.563 14.8307 25.7274C13.5463 25.8642 11.1446 26.3743 10.916 26.423C10.8712 26.2945 10.8382 26.1695 10.8312 26.0634C10.795 25.5123 10.7813 25.14 11.2547 24.6528C11.3569 24.7377 11.5827 24.7931 11.7635 24.7534C12.0265 24.6957 12.1471 24.6266 12.3099 24.4429L26.2296 22.2052ZM24.3636 23.0685C24.1056 23.0208 20.6499 23.6883 18.8651 23.9767C16.4111 24.3732 11.4788 25.0318 11.5354 25.178C11.592 25.3243 16.5137 24.5397 18.988 24.1222C20.8667 23.8053 24.6216 23.1161 24.3636 23.0685Z" fill="black"/>
<path fill-rule="evenodd" clip-rule="evenodd" d="M14.0054 8.17886L1.21099 10.0306C0.778307 11.1695 0.0935099 12.1669 1.18124 14.1589L14.5708 24.5405L29.686 19.9568L28.5554 19.3194C28.5826 18.123 28.879 17.0766 29.5075 15.7981L14.0054 8.17886Z" fill="#8324FB" stroke="#CA1BE7" stroke-width="0.29055"/>
<path fill-rule="evenodd" clip-rule="evenodd" d="M14.0167 7.97144L1.32058 9.69129C0.668507 9.88156 0.296342 11.3356 0.324488 12.2147C0.3465 12.9024 0.717884 13.9911 1.13977 14.4672L14.659 24.9567L30.3322 20.3116C30.5294 20.0498 30.4328 19.9079 30.3585 19.7569L28.8831 18.8433C28.8831 18.8433 28.918 19.5 28.8759 19.9293C24.8465 21.0082 18.4747 22.7902 14.707 23.8727C14.475 23.6349 14.1587 22.7167 14.1409 22.128C14.1106 21.1232 14.2603 20.487 14.6426 20.1345L30.3927 16.5164C30.5755 16.3955 30.597 16.0979 30.3302 15.8349L14.0167 7.97144ZM13.9739 8.52549L28.9397 15.9871L13.9628 19.3866C13.4347 20.0441 13.3023 20.765 13.3145 21.4868C13.3247 22.09 13.4854 22.9789 13.7681 23.4501L1.57108 13.8534C1.26858 13.5753 1.04861 12.6936 1.04772 12.2999C1.04636 11.6929 1.2496 11.0951 1.59738 10.3332L13.9739 8.52549ZM2.2661 10.7724C1.95421 10.9114 7.29254 14.7925 7.29254 14.7925C7.29254 14.7925 13.4917 19.3983 13.5669 19.184C13.6422 18.9697 7.73174 14.3672 7.73174 14.3672C7.73174 14.3672 2.57799 10.6333 2.2661 10.7724Z" fill="black"/>
<path fill-rule="evenodd" clip-rule="evenodd" d="M29.6741 16.676L28.9949 16.8316L14.8155 20.0446C14.5555 20.3309 14.1196 20.8992 14.2553 22.1348C14.3249 22.7677 14.4825 23.3366 14.8622 23.8425L28.8779 19.936C28.9354 19.5688 28.8835 18.8326 28.9285 18.3013C28.9735 17.77 29.1434 17.578 29.3157 17.2851L29.6741 16.676ZM28.5688 17.4407C28.4965 17.7047 28.3884 17.9507 28.3381 18.2255C28.1678 18.2195 27.9162 18.2143 27.7687 18.2456C26.9018 18.4299 25.1731 18.92 25.2235 19.0217C25.274 19.1235 26.8406 18.5428 27.8318 18.4797C27.9752 18.4706 28.163 18.4808 28.3058 18.4905C28.2924 18.6558 28.2853 18.7907 28.2795 18.9231C26.7396 19.3189 25.0264 19.7437 23.4911 20.1292C21.5142 20.6254 18.572 21.2771 18.6099 21.4445C18.6477 21.612 21.5871 20.795 23.5496 20.3022C25.0839 19.9169 26.7336 19.5513 28.2736 19.1585C28.2754 19.2653 28.2815 19.3621 28.2986 19.4389L15.2245 23.0644C14.8131 22.8959 14.8104 22.4462 14.7655 22.1012C14.6978 21.5797 14.697 20.9783 15.0358 20.6993L28.5688 17.4407ZM21.0682 19.7736C18.9115 20.3168 14.9632 21.3828 14.9983 21.4895C15.0334 21.5962 18.9684 20.5113 21.0991 19.9212C22.2259 19.6092 24.5363 19.031 24.3305 18.9752C24.1247 18.9194 22.123 19.508 21.0682 19.7736Z" fill="black"/>
<path fill-rule="evenodd" clip-rule="evenodd" d="M15.999 4.35406L3.65084 7.93603C3.65084 7.93603 3.50207 8.42172 3.32354 8.39136C3.14502 8.361 2.40115 8.361 2.40115 8.361C1.73916 9.22226 1.72441 10.0395 2.25238 10.8198L19.867 19.6229L33.0185 14.766L32.4234 14.25L33.0483 13.309L33.078 11.8215L15.999 4.35406Z" fill="#8324FB" stroke="#CA1BE7" stroke-width="0.29055"/>
<path fill-rule="evenodd" clip-rule="evenodd" d="M16.0089 4.13263C11.8575 5.31126 7.16465 6.57816 3.38648 7.59447C3.31282 7.64217 3.28584 7.82757 3.1248 7.99559C3.05462 8.06882 2.76038 7.91438 2.65601 7.92651C2.49252 7.9455 2.30397 8.08561 2.1721 8.2042C1.99226 8.36595 1.93833 8.52455 1.85848 8.74954C1.77601 8.98189 1.77827 9.24048 1.75986 9.53032C1.72304 10.11 1.82845 10.7892 2.06624 11.108C7.8962 14.05 14.1375 17.3248 19.7178 20.0956C19.8351 20.1883 20.0974 20.2026 20.2464 20.1768C20.3955 20.151 20.5226 20.1002 20.5693 19.9984C20.5989 19.9337 20.6875 19.8101 20.7843 19.7455C20.8827 19.6798 20.9761 19.8467 21.1978 19.8427L33.3883 15.0843C33.5242 15.0312 33.6135 14.8301 33.389 14.6456L32.6118 14.1358L32.2226 14.7308C28.6022 16.0001 24.5134 17.5307 20.685 18.9613C20.3927 18.8976 20.0545 18.2694 20.0367 17.9733C20.0169 17.643 20.1808 17.2633 20.2813 17.1C24.5305 15.4853 29.1571 13.8808 33.7558 12.2174C33.9717 12.0932 33.9094 11.8977 33.7223 11.6707L16.0089 4.13263ZM15.9885 4.68132L32.5211 12.037L20.1899 16.3735C19.9073 16.4823 19.7324 16.7152 19.5837 16.937C19.3903 17.2254 19.2575 17.6554 19.2885 18.1705C19.3171 18.6469 19.4332 18.9678 19.5909 19.2256L2.58763 10.6324C2.36328 10.2957 2.37244 9.989 2.39433 9.58532C2.41155 9.26777 2.49667 8.98951 2.67902 8.75424C2.70055 8.72647 2.9432 8.53773 3.19581 8.68381C3.3003 8.74423 3.40187 8.74628 3.57978 8.61606C3.79886 8.45571 3.72244 8.30887 3.87368 8.18475L15.9885 4.68132H15.9885ZM3.76519 8.59593C3.7227 8.58782 3.69745 8.58964 3.69024 8.6013C3.57496 8.78786 8.54435 11.1988 11.0074 12.4247C13.7295 13.7795 19.1531 16.4818 19.2497 16.3259C19.3463 16.17 13.8515 13.4507 11.1126 12.0947C8.8144 10.9568 4.40264 8.71768 3.76519 8.59593Z" fill="black"/>
<path fill-rule="evenodd" clip-rule="evenodd" d="M33.3317 12.3784C28.8339 13.8794 22.6074 16.2579 20.3207 17.0604C20.062 17.3505 20.0809 17.7197 20.1669 18.0598C20.2528 18.4 20.5271 18.8733 20.7264 18.9553L32.3264 14.714C32.4148 14.5894 32.7863 14.2384 33.0345 13.8487C33.1587 13.6539 33.2548 13.3334 33.3035 13.121C33.3521 12.9086 33.4322 12.5318 33.3317 12.3784H33.3317ZM32.8991 12.8151C32.9851 13.0935 32.7956 13.3116 32.667 13.5261C32.4624 13.8675 32.1901 14.2092 32.0102 14.4538L20.8789 18.526C20.6996 18.4301 20.5555 18.2217 20.493 17.974C20.4287 17.7196 20.4501 17.4477 20.5219 17.3314L32.8991 12.8151ZM26.9988 15.2366C25.0649 15.9566 21.1727 17.239 21.2287 17.4521C21.2847 17.6652 25.1517 16.1128 27.1033 15.3835C28.9395 14.6974 32.4311 13.3932 32.3618 13.3058C32.2925 13.2184 28.7373 14.5892 26.9988 15.2366ZM32.0128 14.0681C31.9706 14.015 30.5684 14.5137 29.8786 14.7818C29.2293 15.0341 20.8296 18.1006 20.8684 18.2061C20.9072 18.3116 29.3322 15.1836 29.9891 14.9314C30.6732 14.6686 32.055 14.1212 32.0128 14.0681Z" fill="black"/>
<path fill-rule="evenodd" clip-rule="evenodd" d="M17.0107 0.195358L3.20458 2.98807C2.19506 3.9834 1.8356 5.23139 2.49048 6.87359L16.5048 16.4052L32.7805 12.2162L31.3523 11.1841L31.2333 9.60559L32.5425 7.78425L17.0107 0.195358Z" fill="#8324FB" stroke="#CA1BE7" stroke-width="0.29055"/>
<path fill-rule="evenodd" clip-rule="evenodd" d="M17.0694 0L2.87166 2.81791C2.87166 2.81791 1.93711 3.89804 1.95183 5.00998C1.96615 6.09104 2.0909 6.7332 2.39432 7.04309C2.83659 7.35756 16.5027 16.7887 16.5027 16.7887L32.9714 12.3677C33.1413 12.1549 33.0162 11.9922 32.8899 11.8297L31.6295 11.2522L31.7393 11.8398C26.8872 13.1536 21.7634 14.5097 16.8367 15.7571C16.7697 15.4658 16.5365 14.6513 16.5145 14.3666C16.4307 13.2793 17.1393 12.2853 17.2325 12.1591L32.7998 8.3967C32.9702 8.16277 32.9216 7.85336 32.7387 7.67093L17.0694 0ZM17.0293 0.505092L31.8419 7.85137L16.9189 11.6593C16.9189 11.6593 15.7929 12.808 15.8912 14.3444C15.9273 14.9077 16.2188 15.6978 16.2726 15.912L2.9591 6.85393C2.68727 6.56606 2.60033 5.98261 2.58697 4.97309C2.57831 4.31977 3.08231 3.44081 3.15832 3.37264L17.0293 0.505092ZM3.40817 3.45983C3.33001 3.62151 7.63649 6.22879 9.79369 7.53946C12.0772 8.92685 16.5258 11.7297 16.7302 11.554C16.9345 11.3784 12.2894 8.65586 10.0258 7.28054C7.84872 5.9578 3.48632 3.29816 3.40817 3.45983Z" fill="black"/>
<path fill-rule="evenodd" clip-rule="evenodd" d="M32.4927 8.36181C32.4461 8.36735 32.3955 8.39072 32.3691 8.39736L17.3515 12.1262C17.0031 12.7163 16.656 13.3004 16.5901 13.9339C16.5282 14.529 16.8193 15.3117 16.9241 15.8382L31.7412 11.8673C31.6286 11.2802 31.5531 10.7434 31.5466 10.2675C31.5388 9.68813 31.7992 9.26085 32.0549 8.96148C32.1827 8.81179 32.2804 8.7776 32.381 8.7039C32.465 8.64233 32.5626 8.59271 32.5966 8.53353C32.6126 8.50581 32.6065 8.4843 32.596 8.43157C32.5834 8.36823 32.5396 8.35624 32.4927 8.36181H32.4927ZM31.1863 9.11307C30.9587 9.39694 30.8989 9.60688 30.8852 9.82744C29.8924 9.97523 26.7221 10.6775 25.0013 11.0791C23.0003 11.5461 19.0051 12.543 19.0353 12.648C19.0655 12.753 23.078 11.7957 25.0875 11.3266C26.8048 10.9257 29.8964 10.225 30.8819 9.93007C30.8815 10.0618 30.8879 10.1998 30.8885 10.3667C30.8911 11.0945 30.9932 11.3476 31.0213 11.4782L17.2002 15.0044C17.1526 14.8738 17.1239 14.768 17.1023 14.6684C17.3963 14.671 18.2959 14.4967 18.7756 14.3766C19.3983 14.2206 21.4704 13.6231 21.4614 13.5368C21.4524 13.4505 19.3345 14.019 18.6934 14.1794C18.2224 14.2973 17.358 14.4703 17.0878 14.5852C17.056 14.3897 17.0603 14.2087 17.078 13.9245C17.1206 13.2395 17.4276 12.8261 17.4784 12.748L31.1863 9.11307ZM22.9454 12.4428C21.201 12.8337 17.7405 13.5478 17.7486 13.7011C17.7567 13.8544 21.2729 13.0872 23.017 12.6963C24.954 12.2622 28.8288 11.3296 28.5534 11.2806C28.2781 11.2316 24.761 12.0358 22.9454 12.4428Z" fill="black"/>
</svg>
