<svg width="32" height="29" viewBox="0 0 32 29" fill="none" xmlns="http://www.w3.org/2000/svg">
<path d="M32 3.429C30.8241 4.015 29.5593 4.406 28.2252 4.591C29.5815 3.685 30.625 2.24 31.1147 0.533C29.8455 1.37 28.4394 1.985 26.9435 2.309C25.749 0.884 24.0451 0 22.1573 0C18.5309 0 15.5916 3.278 15.5916 7.32C15.5916 7.892 15.6511 8.449 15.7631 8.99C10.3076 8.682 5.46888 5.764 2.23181 1.336C1.66297 2.418 1.343 3.685 1.343 5.022C1.343 7.563 2.49935 9.8 4.26276 11.118C3.1864 11.081 2.17315 10.744 1.28611 10.204C1.28611 10.226 1.28611 10.259 1.28611 10.29C1.28611 13.841 3.54993 16.798 6.55057 17.471C6.00217 17.64 5.42266 17.734 4.82538 17.734C4.40141 17.734 3.98811 17.68 3.58815 17.599C4.42363 20.501 6.84743 22.622 9.71919 22.685C7.47227 24.645 4.64228 25.819 1.5652 25.819C1.03369 25.819 0.513735 25.785 0 25.715C2.90731 27.786 6.35947 29 10.0649 29C22.1395 29 28.7452 17.844 28.7452 8.166C28.7452 7.849 28.7363 7.533 28.7229 7.221C30.0117 6.197 31.1227 4.905 32 3.429Z" fill="#03A9F4"/>
</svg>
