<svg width="30" height="30" viewBox="0 0 30 30" fill="none" xmlns="http://www.w3.org/2000/svg">
<path d="M15 17.906C11.6593 17.906 8.94165 15.1883 8.94165 11.8477C8.94165 8.507 11.6593 5.78934 15 5.78934C18.3403 5.78934 21.0583 8.507 21.0583 11.8477C21.0583 15.1883 18.3403 17.906 15 17.906Z" fill="#8324FB"/>
<path d="M15 0C6.729 0 0 6.729 0 15C0 23.271 6.729 30 15 30C23.271 30 30 23.271 30 15C30 6.729 23.271 0 15 0ZM24.9403 23.3653C23.7593 21.6143 22.1213 20.176 20.2207 19.2543C19.467 18.889 18.587 18.8943 17.805 19.27C16.9257 19.6927 15.9817 19.9067 15 19.9067C14.0183 19.9067 13.0747 19.6923 12.195 19.27C11.414 18.895 10.5337 18.889 9.77933 19.2543C7.87867 20.176 6.24067 21.6143 5.05933 23.3653C3.15233 21.1027 2 18.184 2 15C2 7.83167 7.83167 2 15 2C22.1683 2 28 7.83167 28 15C28 18.184 26.8477 21.1027 24.9403 23.3653Z" fill="#8324FB"/>
</svg>
